<svg width="498" height="237" viewBox="0 0 498 237" fill="none" xmlns="http://www.w3.org/2000/svg">
<g clip-path="url(#clip0_42_734)">
<path d="M489.332 219.047C484.99 218.263 480.834 221.147 480.049 225.489C479.265 229.832 482.149 233.988 486.492 234.772C490.834 235.557 494.99 232.673 495.775 228.33C496.559 223.988 493.675 219.831 489.332 219.047Z" fill="#66DD8D" stroke="#66DD8D" stroke-width="3.16" stroke-miterlimit="10"/>
<path d="M19.74 9.86005C19.74 4.41005 15.32 -0.00996466 9.87 -0.00996442C4.42 -0.00996418 3.14504e-06 4.41005 3.38327e-06 9.86005C3.62149e-06 15.31 4.42 19.73 9.87 19.73C15.32 19.73 19.74 15.31 19.74 9.86005Z" fill="#66DD8D"/>
<path d="M479.87 226.85L298.78 226.85L123.95 52.03L52.03 52.03L9.87 9.86005" stroke="url(#paint0_linear_42_734)" stroke-width="3.16" stroke-miterlimit="10"/>
</g>
<defs>
<linearGradient id="paint0_linear_42_734" x1="480" y1="226.48" x2="82" y2="-1.51997" gradientUnits="userSpaceOnUse">
<stop stop-color="#66DD8D"/>
<stop offset="1" stop-color="#315BEF"/>
</linearGradient>
<clipPath id="clip0_42_734">
<rect width="236.48" height="497.44" fill="white" transform="translate(1.14441e-05 236.48) rotate(-90)"/>
</clipPath>
</defs>
</svg>
